<svg width="1600" height="900" viewBox="0 0 1600 900" fill="none" xmlns="http://www.w3.org/2000/svg">
<g clip-path="url(#clip0)">
<path d="M408.081 601.681C407.947 601.679 407.813 601.679 407.679 601.68H389.319V595.92C389.297 576.422 373.497 560.622 353.999 560.6H345.999C341.999 554.36 327.999 528.96 327.999 464.12C327.74 431.033 334.105 398.229 346.719 367.64H351.639C373.73 367.64 391.639 349.731 391.639 327.64C391.602 324.835 389.298 322.591 386.492 322.628C386.394 322.629 386.296 322.633 386.199 322.64H361.599L366.999 264.2C366.977 254.158 358.841 246.022 348.799 246H329.039C318.997 246.022 310.861 254.158 310.839 264.2V276.84H292.479V264.32C292.457 254.278 284.321 246.142 274.279 246.12H254.599C244.588 246.186 236.501 254.309 236.479 264.32V276.96H218.119V264.32C218.097 254.278 209.961 246.142 199.919 246.12H180.159C170.041 246.184 161.892 254.438 161.956 264.556C161.956 264.637 161.958 264.719 161.959 264.8L167.319 322.64H142.759C139.953 322.64 137.679 324.914 137.679 327.72C137.679 349.811 155.588 367.72 177.679 367.72H182.599C195.213 398.309 201.578 431.113 201.319 464.2C201.319 529.12 187.479 554.52 183.359 560.68H175.359C155.861 560.702 140.061 576.502 140.039 596V601.76H121.279C107.649 601.694 96.545 612.689 96.479 626.319C96.479 626.319 96.479 626.319 96.479 626.32V630.32C96.501 643.919 107.52 654.938 121.119 654.96H407.679C421.217 655.027 432.282 644.176 432.479 630.64V626.64C432.634 613.011 421.711 601.836 408.081 601.681ZM179.999 256.24C180.053 256.24 180.106 256.24 180.16 256.24H199.92C204.338 256.24 207.92 259.822 207.92 264.24V281.92C207.92 284.726 210.194 287 213 287H241.4C244.206 287 246.48 284.726 246.48 281.92V264.32C246.48 259.902 250.062 256.32 254.48 256.32H274.24C278.658 256.32 282.24 259.902 282.24 264.32V282C282.24 284.806 284.514 287.08 287.32 287.08H315.72C318.526 287.08 320.8 284.806 320.8 282V264.32C320.8 259.902 324.382 256.32 328.8 256.32H348.56C352.827 256.315 356.347 259.659 356.56 263.92L351.44 322.64H177.52L172.08 264.32C172.035 259.902 175.58 256.284 179.999 256.24ZM177.519 357.48C163.1 357.446 150.779 347.081 148.279 332.88H380.719C378.234 347.089 365.904 357.463 351.479 357.48H177.519V357.48ZM211.279 464.12C211.522 431.122 205.481 398.379 193.479 367.64H335.479C323.477 398.379 317.436 431.122 317.679 464.12C317.679 519.68 327.559 548.12 334.079 560.6H194.879C201.399 547.96 211.279 519.68 211.279 464.12ZM149.759 596.12C149.781 582.212 161.051 570.942 174.959 570.92H353.999C367.907 570.942 379.177 582.212 379.199 596.12V601.88H149.759V596.12ZM422.199 630.64C422.199 638.659 415.698 645.16 407.679 645.16H121.279C113.26 645.16 106.759 638.659 106.759 630.64V626.64C106.759 618.621 113.26 612.12 121.279 612.12H407.679C415.698 612.12 422.199 618.621 422.199 626.64V630.64Z" fill="white"/>
</g>
<path d="M544.192 568.88C525.952 568.88 510.208 565.136 496.96 557.648C483.712 550.16 473.92 540.08 467.584 527.408C466.432 525.104 466.336 522.896 467.296 520.784C468.448 518.672 470.272 517.232 472.768 516.464C474.88 515.696 476.992 515.792 479.104 516.752C481.216 517.712 482.848 519.248 484 521.36C488.992 530.768 496.576 538.16 506.752 543.536C517.12 548.912 529.6 551.6 544.192 551.6C560.704 551.6 573.664 547.472 583.072 539.216C592.672 530.96 597.472 519.248 597.472 504.08C597.472 491.408 592.864 480.752 583.648 472.112C574.624 463.28 560.8 457.616 542.176 455.12C520.672 452.048 503.872 445.136 491.776 434.384C479.68 423.44 473.632 410.192 473.632 394.64C473.632 383.312 476.416 373.424 481.984 364.976C487.744 356.528 495.712 350 505.888 345.392C516.256 340.592 528.16 338.192 541.6 338.192C551.584 338.192 560.8 339.824 569.248 343.088C577.696 346.352 585.088 350.672 591.424 356.048C597.76 361.232 602.656 366.704 606.112 372.464C607.456 374.576 607.744 376.88 606.976 379.376C606.4 381.68 604.864 383.312 602.368 384.272C600.256 385.04 598.144 385.136 596.032 384.56C593.92 383.792 592.192 382.448 590.848 380.528C588.16 376.496 584.704 372.56 580.48 368.72C576.256 364.88 570.976 361.712 564.64 359.216C558.304 356.72 550.624 355.472 541.6 355.472C525.856 355.472 513.472 359.024 504.448 366.128C495.424 373.232 490.912 383.312 490.912 396.368C490.912 406.736 495.232 415.664 503.872 423.152C512.512 430.448 526.24 435.728 545.056 438.992C569.824 443.216 587.584 450.896 598.336 462.032C609.28 472.976 614.752 486.992 614.752 504.08C614.752 517.52 611.776 529.136 605.824 538.928C599.872 548.528 591.616 555.92 581.056 561.104C570.496 566.288 558.208 568.88 544.192 568.88ZM667.904 566C665.408 566 663.296 565.232 661.568 563.696C660.032 561.968 659.264 559.856 659.264 557.36V417.104C659.264 414.416 660.032 412.304 661.568 410.768C663.296 409.232 665.408 408.464 667.904 408.464C670.592 408.464 672.704 409.232 674.24 410.768C675.776 412.304 676.544 414.416 676.544 417.104V432.08C682.88 424.208 690.752 417.968 700.16 413.36C709.76 408.752 720.128 406.448 731.264 406.448C745.088 406.448 757.472 409.328 768.416 415.088C779.552 420.656 788.288 428.912 794.624 439.856C800.96 450.608 804.128 463.952 804.128 479.888V557.36C804.128 559.856 803.264 561.968 801.536 563.696C800 565.232 797.984 566 795.488 566C792.992 566 790.88 565.232 789.152 563.696C787.616 561.968 786.848 559.856 786.848 557.36V479.888C786.848 467.216 784.352 456.752 779.36 448.496C774.56 440.24 767.936 434.096 759.488 430.064C751.232 425.84 741.824 423.728 731.264 423.728C720.896 423.728 711.584 425.744 703.328 429.776C695.072 433.616 688.544 438.992 683.744 445.904C678.944 452.816 676.544 460.592 676.544 469.232V557.36C676.544 559.856 675.776 561.968 674.24 563.696C672.704 565.232 670.592 566 667.904 566ZM667.904 496.88C665.408 496.88 663.296 496.112 661.568 494.576C660.032 492.848 659.264 490.736 659.264 488.24V349.712C659.264 347.024 660.032 344.912 661.568 343.376C663.296 341.84 665.408 341.072 667.904 341.072C670.592 341.072 672.704 341.84 674.24 343.376C675.776 344.912 676.544 347.024 676.544 349.712V488.24C676.544 490.736 675.776 492.848 674.24 494.576C672.704 496.112 670.592 496.88 667.904 496.88ZM925.045 567.728C909.685 567.728 895.861 564.272 883.573 557.36C871.477 550.256 861.877 540.656 854.773 528.56C847.861 516.272 844.405 502.544 844.405 487.376C844.405 472.016 847.861 458.288 854.773 446.192C861.877 433.904 871.477 424.304 883.573 417.392C895.861 410.288 909.685 406.736 925.045 406.736C940.405 406.736 954.133 410.288 966.229 417.392C978.325 424.304 987.829 433.904 994.741 446.192C1001.85 458.288 1005.4 472.016 1005.4 487.376V557.36C1005.4 559.856 1004.63 561.968 1003.09 563.696C1001.56 565.232 999.445 566 996.757 566C994.261 566 992.149 565.232 990.421 563.696C988.885 561.968 988.117 559.856 988.117 557.36V534.896C981.781 544.88 973.141 552.848 962.197 558.8C951.253 564.752 938.869 567.728 925.045 567.728ZM925.045 551.6C937.141 551.6 947.893 548.816 957.301 543.248C966.901 537.488 974.389 529.808 979.765 520.208C985.333 510.416 988.117 499.472 988.117 487.376C988.117 475.088 985.333 464.144 979.765 454.544C974.389 444.752 966.901 437.072 957.301 431.504C947.893 425.744 937.141 422.864 925.045 422.864C913.141 422.864 902.389 425.744 892.789 431.504C883.189 437.072 875.605 444.752 870.037 454.544C864.469 464.144 861.685 475.088 861.685 487.376C861.685 499.472 864.469 510.416 870.037 520.208C875.605 529.808 883.189 537.488 892.789 543.248C902.389 548.816 913.141 551.6 925.045 551.6ZM1120.51 567.728C1105.15 567.728 1091.33 564.272 1079.04 557.36C1066.95 550.256 1057.35 540.656 1050.24 528.56C1043.33 516.272 1039.87 502.544 1039.87 487.376C1039.87 472.016 1043.33 458.288 1050.24 446.192C1057.35 433.904 1066.95 424.304 1079.04 417.392C1091.33 410.288 1105.15 406.736 1120.51 406.736C1135.87 406.736 1149.6 410.288 1161.7 417.392C1173.79 424.304 1183.3 433.904 1190.21 446.192C1197.31 458.288 1200.87 472.016 1200.87 487.376C1200.87 502.544 1197.31 516.272 1190.21 528.56C1183.3 540.656 1173.79 550.256 1161.7 557.36C1149.6 564.272 1135.87 567.728 1120.51 567.728ZM1120.51 551.6C1132.61 551.6 1143.36 548.816 1152.77 543.248C1162.37 537.488 1169.86 529.808 1175.23 520.208C1180.8 510.416 1183.59 499.472 1183.59 487.376C1183.59 475.088 1180.8 464.144 1175.23 454.544C1169.86 444.752 1162.37 437.072 1152.77 431.504C1143.36 425.744 1132.61 422.864 1120.51 422.864C1108.61 422.864 1097.86 425.744 1088.26 431.504C1078.66 437.072 1071.07 444.752 1065.51 454.544C1059.94 464.144 1057.15 475.088 1057.15 487.376C1057.15 499.472 1059.94 510.416 1065.51 520.208C1071.07 529.808 1078.66 537.488 1088.26 543.248C1097.86 548.816 1108.61 551.6 1120.51 551.6ZM1315.98 567.728C1300.62 567.728 1286.8 564.272 1274.51 557.36C1262.41 550.256 1252.81 540.656 1245.71 528.56C1238.8 516.272 1235.34 502.544 1235.34 487.376C1235.34 472.016 1238.8 458.288 1245.71 446.192C1252.81 433.904 1262.41 424.304 1274.51 417.392C1286.8 410.288 1300.62 406.736 1315.98 406.736C1331.34 406.736 1345.07 410.288 1357.17 417.392C1369.26 424.304 1378.77 433.904 1385.68 446.192C1392.78 458.288 1396.33 472.016 1396.33 487.376C1396.33 502.544 1392.78 516.272 1385.68 528.56C1378.77 540.656 1369.26 550.256 1357.17 557.36C1345.07 564.272 1331.34 567.728 1315.98 567.728ZM1315.98 551.6C1328.08 551.6 1338.83 548.816 1348.24 543.248C1357.84 537.488 1365.33 529.808 1370.7 520.208C1376.27 510.416 1379.05 499.472 1379.05 487.376C1379.05 475.088 1376.27 464.144 1370.7 454.544C1365.33 444.752 1357.84 437.072 1348.24 431.504C1338.83 425.744 1328.08 422.864 1315.98 422.864C1304.08 422.864 1293.33 425.744 1283.73 431.504C1274.13 437.072 1266.54 444.752 1260.97 454.544C1255.41 464.144 1252.62 475.088 1252.62 487.376C1252.62 499.472 1255.41 510.416 1260.97 520.208C1266.54 529.808 1274.13 537.488 1283.73 543.248C1293.33 548.816 1304.08 551.6 1315.98 551.6ZM1448.09 566C1445.6 566 1443.48 565.232 1441.76 563.696C1440.22 561.968 1439.45 559.856 1439.45 557.36V417.104C1439.45 414.416 1440.22 412.304 1441.76 410.768C1443.48 409.232 1445.6 408.464 1448.09 408.464C1450.78 408.464 1452.89 409.232 1454.43 410.768C1455.96 412.304 1456.73 414.416 1456.73 417.104V434.96C1462.3 426.128 1469.31 419.216 1477.76 414.224C1486.4 409.232 1495.9 406.736 1506.27 406.736C1513.56 406.736 1519.23 407.6 1523.26 409.328C1527.29 411.056 1528.83 414.128 1527.87 418.544C1527.29 421.424 1525.95 423.152 1523.84 423.728C1521.72 424.304 1519.13 424.4 1516.06 424.016C1513.18 423.44 1509.92 423.152 1506.27 423.152C1496.67 423.152 1488.12 425.168 1480.64 429.2C1473.15 433.232 1467.29 438.8 1463.07 445.904C1458.84 452.816 1456.73 460.784 1456.73 469.808V557.36C1456.73 559.856 1455.96 561.968 1454.43 563.696C1452.89 565.232 1450.78 566 1448.09 566Z" fill="white"/>
<defs>
<clipPath id="clip0">
<rect width="408.96" height="408.96" fill="white" transform="translate(60 246)"/>
</clipPath>
</defs>
</svg>
